<?xml version="1.0" encoding="UTF-8" standalone="no"?>
<!-- Created with Inkscape (http://www.inkscape.org/) -->

<svg
   xmlns:dc="http://purl.org/dc/elements/1.1/"
   xmlns:cc="http://creativecommons.org/ns#"
   xmlns:rdf="http://www.w3.org/1999/02/22-rdf-syntax-ns#"
   xmlns:svg="http://www.w3.org/2000/svg"
   xmlns="http://www.w3.org/2000/svg"
   version="1.1"
   width="744.09448"
   height="1052.3622"
   id="svg2">
  <defs
     id="defs4">
    <marker
       refX="0"
       refY="0"
       orient="auto"
       id="Arrow1Lend"
       style="overflow:visible">
      <path
         d="M 0,0 5,-5 -12.5,0 5,5 0,0 z"
         transform="matrix(-0.8,0,0,-0.8,-10,0)"
         id="path5334"
         style="fill-rule:evenodd;stroke:#000000;stroke-width:1pt" />
    </marker>
    <marker
       refX="0"
       refY="0"
       orient="auto"
       id="Arrow1Mend"
       style="overflow:visible">
      <path
         d="M 0,0 5,-5 -12.5,0 5,5 0,0 z"
         transform="matrix(-0.4,0,0,-0.4,-4,0)"
         id="path5340"
         style="fill-rule:evenodd;stroke:#000000;stroke-width:1pt" />
    </marker>
    <marker
       refX="0"
       refY="0"
       orient="auto"
       id="Arrow2Lend"
       style="overflow:visible">
      <path
         d="M 8.7185878,4.0337352 -2.2072895,0.01601326 8.7185884,-4.0017078 c -1.7454984,2.3720609 -1.7354408,5.6174519 -6e-7,8.035443 z"
         transform="matrix(-1.1,0,0,-1.1,-1.1,0)"
         id="path5352"
         style="fill-rule:evenodd;stroke-width:0.625;stroke-linejoin:round" />
    </marker>
    <marker
       refX="0"
       refY="0"
       orient="auto"
       id="Arrow1Lstart"
       style="overflow:visible">
      <path
         d="M 0,0 5,-5 -12.5,0 5,5 0,0 z"
         transform="matrix(0.8,0,0,0.8,10,0)"
         id="path5331"
         style="fill-rule:evenodd;stroke:#000000;stroke-width:1pt" />
    </marker>
    <linearGradient
       id="linearGradient5209">
      <stop
         id="stop5211"
         style="stop-color:#000000;stop-opacity:1"
         offset="0" />
      <stop
         id="stop5213"
         style="stop-color:#000000;stop-opacity:0"
         offset="1" />
    </linearGradient>
  </defs>
  <metadata
     id="metadata7">
    <rdf:RDF>
      <cc:Work
         rdf:about="">
        <dc:format>image/svg+xml</dc:format>
        <dc:type
           rdf:resource="http://purl.org/dc/dcmitype/StillImage" />
        <dc:title></dc:title>
      </cc:Work>
    </rdf:RDF>
  </metadata>
  <g
     id="layer1">
    <path
       d="m 471.74123,224.03709 a 90.408653,121.21831 0 1 1 -180.8173,0 90.408653,121.21831 0 1 1 180.8173,0 z"
       transform="translate(-16.162441,0)"
       id="path5279"
       style="fill:none;stroke:#000000;stroke-width:1;stroke-miterlimit:4;stroke-opacity:1;stroke-dasharray:none;stroke-dashoffset:0" />
    <path
       d="m 144.37059,76.554824 c 0,287.893476 0,287.893476 0,287.893476"
       id="path5281"
       style="fill:none;stroke:#000000;stroke-width:3;stroke-linecap:butt;stroke-linejoin:miter;stroke-miterlimit:4;stroke-opacity:1;stroke-dasharray:none" />
    <path
       d="m 586.89863,76.049745 c 0,287.893485 0,287.893485 0,287.893485"
       id="path5281-6"
       style="fill:none;stroke:#000000;stroke-width:3;stroke-linecap:butt;stroke-linejoin:miter;stroke-miterlimit:4;stroke-opacity:1;stroke-dasharray:none" />
    <path
       d="m 144.14664,268.79676 c 136.59353,0 136.9308,0 136.9308,0 l 0,-0.36916 0,0"
       id="path5301"
       style="fill:none;stroke:#000000;stroke-width:0.98798633px;stroke-linecap:butt;stroke-linejoin:miter;stroke-opacity:1" />
    <path
       d="m 280.82241,268.23127 c 24.24366,-12.62691 15.15229,-15.40483 27.77919,-26.01143 12.62691,-10.6066 20.45559,0.75761 28.78935,-4.54569 8.33376,-5.3033 7.57614,-9.59645 17.67767,-9.59645 10.10153,0 22.22336,-2.77791 24.4962,-5.3033 2.27284,-2.52538 11.36422,-0.50507 22.98097,1.26269 11.61675,1.76777 7.57614,-2.27284 19.69797,-5.80837 12.12183,-3.53554 30.55712,-19.44544 31.0622,-19.44544 0.50507,0 0.50507,0 0.50507,0"
       id="path5303"
       style="fill:none;stroke:#000000;stroke-width:1px;stroke-linecap:butt;stroke-linejoin:miter;stroke-opacity:1" />
    <path
       d="M 453.57143,198.61218 C 587.32143,114.50504 587.5,114.50504 587.5,114.50504 621.74889,91.202035 621.24382,91.202035 621.24382,91.202035"
       id="path5305"
       style="fill:none;stroke:#000000;stroke-width:1px;stroke-linecap:butt;stroke-linejoin:miter;stroke-opacity:1" />
    <path
       d="m 144.07301,268.73634 c -26.76905,0 -86.36805,0 -86.36805,0"
       id="path5325"
       style="fill:none;stroke:#000000;stroke-width:1px;stroke-linecap:butt;stroke-linejoin:miter;stroke-opacity:1;marker-start:url(#Arrow1Lstart);marker-mid:url(#Arrow2Lend)" />
    <path
       d="m 429.81991,199.28836 c 63.63961,0 64.14468,0 64.14468,0"
       id="path7815"
       style="fill:none;stroke:#000000;stroke-width:1;stroke-linecap:butt;stroke-linejoin:miter;stroke-miterlimit:4;stroke-opacity:1;stroke-dasharray:3, 3;stroke-dashoffset:0" />
    <path
       d="m 555.35938,114.79006 c 63.63961,0 64.14468,0 64.14468,0"
       id="path7815-9"
       style="fill:none;stroke:#000000;stroke-width:1;stroke-linecap:butt;stroke-linejoin:miter;stroke-miterlimit:4;stroke-opacity:1;stroke-dasharray:3, 3;stroke-dashoffset:0" />
    <path
       d="m 143.18726,401.21932 c 246.19691,0 246.19691,0 246.19691,0"
       id="path7835"
       style="fill:none;stroke:#000000;stroke-width:0.91738766;stroke-linecap:butt;stroke-linejoin:miter;stroke-miterlimit:4;stroke-opacity:1;stroke-dasharray:none;marker-end:url(#Arrow1Lend)" />
    <text
       x="630"
       y="104.50504"
       id="text8025"
       xml:space="preserve"
       style="font-size:40px;font-style:normal;font-weight:normal;line-height:125%;letter-spacing:0px;word-spacing:0px;fill:#000000;fill-opacity:1;stroke:none;font-family:Sans"><tspan
         x="630"
         y="104.50504"
         id="tspan8027"
         style="font-size:20px;font-family:Times New Roman;-inkscape-font-specification:Times New Roman">φ</tspan></text>
    <text
       x="492.80481"
       y="188.39943"
       id="text8025-0"
       xml:space="preserve"
       style="font-size:40px;font-style:normal;font-weight:normal;line-height:125%;letter-spacing:0px;word-spacing:0px;fill:#000000;fill-opacity:1;stroke:none;font-family:Sans"><tspan
         x="492.80481"
         y="188.39943"
         id="tspan8027-5"
         style="font-size:20px;font-family:Times New Roman;-inkscape-font-specification:Times New Roman">φ</tspan></text>
    <path
       d="m 479.28571,183.07647 c 4.28572,7.14285 2.14286,15 2.14286,15"
       id="path8050"
       style="fill:none;stroke:#000000;stroke-width:1px;stroke-linecap:butt;stroke-linejoin:miter;stroke-opacity:1" />
    <path
       d="m 605.71429,102.36218 c 3.57142,6.42857 3.57142,12.14286 3.57142,12.14286 l 0,0"
       id="path8052"
       style="fill:none;stroke:#000000;stroke-width:1px;stroke-linecap:butt;stroke-linejoin:miter;stroke-opacity:1" />
    <text
       x="339.28571"
       y="421.64789"
       id="text8054"
       xml:space="preserve"
       style="font-size:20px;font-style:normal;font-variant:normal;font-weight:normal;font-stretch:normal;line-height:125%;letter-spacing:0px;word-spacing:0px;fill:#000000;fill-opacity:1;stroke:none;font-family:Times New Roman;-inkscape-font-specification:Times New Roman"><tspan
         x="339.28571"
         y="421.64789"
         id="tspan8056">u</tspan></text>
    <path
       d="M 362.26498,220.89945 C 382.3814,68.498069 444.96584,47.396339 444.96584,47.396339 l 0,0"
       id="path8058"
       style="fill:none;stroke:#000000;stroke-width:1.0683136px;stroke-linecap:butt;stroke-linejoin:miter;stroke-opacity:1;marker-start:url(#Arrow1Lstart)" />
    <text
       x="452.85715"
       y="43.076466"
       id="text8436"
       xml:space="preserve"
       style="font-size:40px;font-style:normal;font-weight:normal;line-height:125%;letter-spacing:0px;word-spacing:0px;fill:#000000;fill-opacity:1;stroke:none;font-family:Sans"><tspan
         x="452.85715"
         y="43.076466"
         id="tspan8438"
         style="font-size:20px;font-family:Times New Roman;-inkscape-font-specification:Times New Roman">Most likely path</tspan></text>
    <path
       d="m 280.71429,269.1479 c 172.5,-69.64286 172.5,-69.64286 172.5,-69.64286"
       id="path8440"
       style="fill:none;stroke:#00f500;stroke-width:1px;stroke-linecap:butt;stroke-linejoin:miter;stroke-opacity:1" />
  </g>
</svg>
